<svg width="192" height="180" version="1.1" xmlns="http://www.w3.org/2000/svg" >
  <path fill="rgb(72, 219, 251)" stroke="rgb(72, 219, 251)" stroke-width="1" opacity="0" d="M 0 0 L 192 0 L 192 192 L 0 192 L 0 0 Z M 27 56 L 22 59 L 16 67 L 16 126 L 18 130 L 27 136 L 80 136 L 80 120 L 32 120 L 32 72 L 160 72 L 160 120 L 160 120 L 152 120 L 152 136 L 165 136 L 171 133 L 176 126 L 176 68 L 174 63 L 165 56 L 27 56 Z M 135 80 L 131 91 L 122 95 Q 119 94 120 97 L 131 101 L 135 111 Q 134 113 137 112 L 141 101 L 151 97 Q 153 98 152 95 L 141 91 L 137 82 Q 138 79 135 80 Z M 115 96 L 107 115 L 90 123 Q 87 122 88 125 L 106 132 L 108 135 L 115 151 Q 114 153 117 152 L 124 135 L 127 132 L 143 125 Q 145 126 144 123 L 127 116 L 117 98 Q 118 95 115 96 Z " />
  <path fill="rgb(72, 219, 251)" stroke="rgb(72, 219, 251)" stroke-width="1" opacity="0.9686274509803922" d="M 26.5 56 L 164.5 56 L 174 62.5 L 176 67.5 L 176 125.5 L 170.5 133 L 164.5 136 L 152 136 L 152 120 L 159.5 120 L 160 119.5 L 160 72 L 32 72 L 32 120 L 80 120 L 80 136 L 26.5 136 L 18 129.5 L 16 125.5 L 16 66.5 L 21.5 59 L 26.5 56 Z " />
  <path fill="rgb(72, 219, 251)" stroke="rgb(72, 219, 251)" stroke-width="1" opacity="0.9686274509803922" d="M 135 80 Q 137.7 78.9 137 81.5 L 141 91 L 152 95 Q 153.1 97.7 150.5 97 L 141 101 L 137 112 Q 134.3 113.1 135 110.5 L 131 101 L 120 97 Q 118.9 94.3 121.5 95 L 131 91 L 135 80 Z " />
  <path fill="rgb(72, 219, 251)" stroke="rgb(72, 219, 251)" stroke-width="1" opacity="0.9686274509803922" d="M 115 96 Q 117.7 94.9 117 97.5 L 126.5 116 L 144 123 Q 145.1 125.7 142.5 125 L 126.5 132 L 124 134.5 L 117 152 Q 114.3 153.1 115 150.5 L 108 134.5 L 105.5 132 L 88 125 Q 86.9 122.3 89.5 123 L 107 114.5 L 115 96 Z " />
</svg>
